<svg width="294" height="76" viewBox="0 0 294 76" fill="none" xmlns="http://www.w3.org/2000/svg">
<g clip-path="url(#clip0_5_6)">
<rect width="1440" height="1024" transform="translate(-35 -20)" fill="white"/>
<rect x="-35" y="-21" width="1440" height="126" fill="black"/>
<path d="M75.3673 62L66.9065 31.0579H70.7138L77.1803 56.2588H77.4824L84.0697 31.0579H88.3001L94.8874 56.2588H95.1896L101.656 31.0579H105.463L97.0026 62H93.1348L86.3058 37.343H86.064L79.235 62H75.3673ZM113.214 48.0398V62H109.648V31.0579H113.214V42.4194H113.516C114.06 41.2208 114.876 40.269 115.964 39.5639C117.062 38.8488 118.522 38.4912 120.345 38.4912C121.927 38.4912 123.311 38.8085 124.5 39.4431C125.689 40.0675 126.61 41.0294 127.265 42.3288C127.93 43.618 128.262 45.2598 128.262 47.2541V62H124.696V47.4959C124.696 45.6526 124.218 44.2274 123.261 43.2202C122.314 42.2029 121 41.6942 119.318 41.6942C118.149 41.6942 117.102 41.941 116.175 42.4345C115.259 42.9281 114.533 43.6482 114 44.595C113.476 45.5418 113.214 46.6901 113.214 48.0398ZM134.785 62V38.7934H138.351V62H134.785ZM136.598 34.9256C135.903 34.9256 135.304 34.6889 134.8 34.2155C134.307 33.7421 134.06 33.173 134.06 32.5083C134.06 31.8435 134.307 31.2744 134.8 30.801C135.304 30.3276 135.903 30.0909 136.598 30.0909C137.293 30.0909 137.887 30.3276 138.381 30.801C138.885 31.2744 139.136 31.8435 139.136 32.5083C139.136 33.173 138.885 33.7421 138.381 34.2155C137.887 34.6889 137.293 34.9256 136.598 34.9256ZM144.881 62V38.7934H148.326V42.2986H148.568C148.991 41.1503 149.756 40.2186 150.864 39.5035C151.972 38.7884 153.221 38.4308 154.611 38.4308C154.873 38.4308 155.2 38.4358 155.593 38.4459C155.986 38.456 156.283 38.4711 156.485 38.4912V42.1173C156.364 42.087 156.087 42.0417 155.654 41.9813C155.231 41.9108 154.782 41.8755 154.309 41.8755C153.181 41.8755 152.174 42.1122 151.287 42.5856C150.411 43.0489 149.716 43.6936 149.202 44.5195C148.699 45.3354 148.447 46.267 148.447 47.3146V62H144.881ZM164.277 31.0579V62H160.711V31.0579H164.277ZM171.291 62V31.0579H181.746C184.173 31.0579 186.158 31.496 187.699 32.3723C189.25 33.2385 190.398 34.4119 191.143 35.8926C191.889 37.3732 192.261 39.0251 192.261 40.8481C192.261 42.6712 191.889 44.3281 191.143 45.8188C190.408 47.3095 189.27 48.4981 187.729 49.3844C186.188 50.2607 184.214 50.6989 181.806 50.6989H174.313V47.375H181.686C183.347 47.375 184.682 47.0879 185.689 46.5138C186.697 45.9397 187.427 45.1641 187.88 44.1871C188.343 43.2 188.575 42.087 188.575 40.8481C188.575 39.6092 188.343 38.5013 187.88 37.5243C187.427 36.5473 186.691 35.7818 185.674 35.2278C184.657 34.6637 183.307 34.3817 181.625 34.3817H175.038V62H171.291ZM206.992 62.4835C204.897 62.4835 203.059 61.9849 201.478 60.9877C199.906 59.9906 198.678 58.5956 197.791 56.8027C196.915 55.0098 196.477 52.9148 196.477 50.5176C196.477 48.1002 196.915 45.9901 197.791 44.1871C198.678 42.3842 199.906 40.9841 201.478 39.987C203.059 38.9898 204.897 38.4912 206.992 38.4912C209.087 38.4912 210.92 38.9898 212.492 39.987C214.073 40.9841 215.302 42.3842 216.178 44.1871C217.065 45.9901 217.508 48.1002 217.508 50.5176C217.508 52.9148 217.065 55.0098 216.178 56.8027C215.302 58.5956 214.073 59.9906 212.492 60.9877C210.92 61.9849 209.087 62.4835 206.992 62.4835ZM206.992 59.2805C208.584 59.2805 209.893 58.8725 210.92 58.0567C211.948 57.2408 212.708 56.1681 213.202 54.8386C213.695 53.509 213.942 52.0687 213.942 50.5176C213.942 48.9664 213.695 47.521 213.202 46.1814C212.708 44.8418 211.948 43.759 210.92 42.9331C209.893 42.1072 208.584 41.6942 206.992 41.6942C205.401 41.6942 204.091 42.1072 203.064 42.9331C202.037 43.759 201.276 44.8418 200.783 46.1814C200.289 47.521 200.042 48.9664 200.042 50.5176C200.042 52.0687 200.289 53.509 200.783 54.8386C201.276 56.1681 202.037 57.2408 203.064 58.0567C204.091 58.8725 205.401 59.2805 206.992 59.2805ZM232.378 62.4835C230.283 62.4835 228.445 61.9849 226.864 60.9877C225.292 59.9906 224.064 58.5956 223.177 56.8027C222.301 55.0098 221.863 52.9148 221.863 50.5176C221.863 48.1002 222.301 45.9901 223.177 44.1871C224.064 42.3842 225.292 40.9841 226.864 39.987C228.445 38.9898 230.283 38.4912 232.378 38.4912C234.473 38.4912 236.306 38.9898 237.878 39.987C239.459 40.9841 240.688 42.3842 241.564 44.1871C242.451 45.9901 242.894 48.1002 242.894 50.5176C242.894 52.9148 242.451 55.0098 241.564 56.8027C240.688 58.5956 239.459 59.9906 237.878 60.9877C236.306 61.9849 234.473 62.4835 232.378 62.4835ZM232.378 59.2805C233.97 59.2805 235.279 58.8725 236.306 58.0567C237.334 57.2408 238.094 56.1681 238.588 54.8386C239.081 53.509 239.328 52.0687 239.328 50.5176C239.328 48.9664 239.081 47.521 238.588 46.1814C238.094 44.8418 237.334 43.759 236.306 42.9331C235.279 42.1072 233.97 41.6942 232.378 41.6942C230.787 41.6942 229.477 42.1072 228.45 42.9331C227.423 43.759 226.662 44.8418 226.169 46.1814C225.675 47.521 225.428 48.9664 225.428 50.5176C225.428 52.0687 225.675 53.509 226.169 54.8386C226.662 56.1681 227.423 57.2408 228.45 58.0567C229.477 58.8725 230.787 59.2805 232.378 59.2805ZM251.902 31.0579V62H248.337V31.0579H251.902Z" fill="white"/>
<path d="M38.3145 59.6017C43.5798 57.8389 56 52.3938 56 40.2487V32.9113C56 30.8442 56 29.8091 55.4556 29.0188C54.9762 28.323 54.2093 27.7576 53.2685 27.4031C52.1989 27 50.8008 27 48.0005 27H24.0005C21.2002 27 19.7991 27 18.7295 27.4031C17.7887 27.7576 17.0243 28.323 16.545 29.0188C16 29.8099 16 30.8462 16 32.9174V40.2487C16 52.3938 28.4195 57.8389 33.6849 59.6017C34.2431 59.7886 34.5236 59.8818 35.1553 59.962C35.5539 60.0127 36.4487 60.0127 36.8472 59.962C37.4768 59.8821 37.7543 59.7892 38.3087 59.6036L38.3145 59.6017Z" fill="#F4F4F4"/>
</g>
<defs>
<clipPath id="clip0_5_6">
<rect width="1440" height="1024" fill="white" transform="translate(-35 -20)"/>
</clipPath>
</defs>
</svg>
